<?xml version="1.0" encoding="utf-8"?>
<!-- Generator: Adobe Illustrator 27.5.0, SVG Export Plug-In . SVG Version: 6.00 Build 0)  -->
<svg version="1.1" xmlns="http://www.w3.org/2000/svg" xmlns:xlink="http://www.w3.org/1999/xlink" x="0px" y="0px"
	 viewBox="0 0 500 500" style="enable-background:new 0 0 500 500;" xml:space="preserve">
<g id="Character_3">
	<g id="Character_00000012442641191847184440000009988796033657423757_">
		<path style="fill:#303030;" d="M386.31,124.68l-37.827-1.708c-0.435,6.743-0.784,11.127-5.619,15.785
			c-4.217,4.062-8.474,5.532-12.964,9.291c-11.301,9.832-3.364,25.967,9.81,27.905c14.908,2.193,31.068-4.069,38.734-19.342
			C383.414,146.708,386.875,135.745,386.31,124.68z"/>
		<g id="Arm_00000102528346759596174040000007862991042550225026_">
			<path style="fill:#FFCCCC;" d="M283.711,179.718c0.375-0.788,1.43-0.693,2.473-0.331c1.296,0.45,3.113,1.124,3.853,1.379
				c0.739,0.255,0.817-0.227,0.444-0.478c-0.951-0.64-4.892-3.196-5.833-3.959c-0.941-0.763-2.217-1.795-1.59-2.967
				c0.477-0.891,1.512-0.704,2.966,0.215c2.691,1.7,5.666,3.579,6.257,3.952c0.591,0.373,0.917,0.068,0.361-0.417
				c-0.556-0.486-4.97-4.232-6.146-5.263c-1.175-1.03-2.32-1.954-1.577-3.031c0.662-0.958,2.019-0.253,2.869,0.298
				c0.962,0.624,2.538,1.846,3.908,2.867c1.288,0.96,2.089,1.497,2.549,1.811c0.461,0.314,0.966,0.602,1.145,0.396
				c0.178-0.206,0.086-0.33-0.344-0.804c-2.055-2.267-2.421-2.625-4.296-4.589c-1.092-1.144-1.646-1.639-1.958-2.614
				c-0.222-0.693,0.569-1.568,1.391-1.398c1.299,0.269,2.131,1.283,3.417,2.417c1.574,1.388,4.176,3.955,6.101,5.558
				c1.055,0.878,1.55,0.869,1.805,0.737c0.538-0.279-0.029-1.728-0.302-2.318c-0.416-0.901-0.908-1.803-0.983-2.812
				c-0.054-0.72,0.479-1.751,1.33-1.659c0.204,0.022,0.389,0.127,0.554,0.249c0.822,0.607,1.414,1.83,1.991,2.67
				c0.69,1.004,1.341,2.036,1.951,3.09c0.842,1.456,1.65,2.902,2.723,4.383c1.073,1.481,3.048,2.764,4.258,3.339
				c5.119,2.431,9.227,3.687,14.618,5.372c3.979-7.093,7.809-15.19,10.274-20.161c2.563-5.168,4.613-7.275,6.668-8.43
				c2.152-1.21,3.049-1.443,5.853-2.483c4.104,4.311,5.074,15.503-0.401,28.248c-1.625,3.784-5.119,10.008-7.179,13.115
				c-2.06,3.107-6.452,11.506-15.584,7.503c-10.281-4.507-17.317-10.727-20.484-12.378c-3.167-1.651-6.773-2.778-10.22-4.172
				c-1.461-0.591-3.864-1.811-5.281-2.476c-2.553-1.197-5.625-2.606-6.41-2.992C284.214,181.256,283.336,180.506,283.711,179.718z"
				/>
			<path style="fill:none;stroke:#303030;stroke-width:1.5;stroke-linecap:round;stroke-linejoin:round;stroke-miterlimit:10;" d="
				M300.603,177.218c-0.528,2.363,0.57,5.002,2.618,6.294"/>
			<g>
				<path style="fill:#F55571;" d="M309.929,196.565c0.946,0.154,1.877,0.008,2.76-0.382c0.322-0.142,0.646-0.325,0.95-0.528
					c1.961-1.32,3.524-3.875,4.022-6.965c0.369-2.333,0.086-4.624-0.787-6.467c-0.018-0.041-0.04-0.091-0.067-0.128
					c-0.921-1.861-2.36-3.02-4.051-3.298c-0.71-0.11-1.427-0.06-2.132,0.153c0.612,0.469,1.243,0.871,1.802,1.176
					c0.04,0.002,0.072,0.007,0.113,0.009c0.689,0.109,1.324,0.43,1.877,0.945c0.48,0.439,0.901,1.012,1.235,1.723
					c0.756,1.599,0.996,3.613,0.672,5.67c-0.478,3.002-2.042,5.419-3.913,6.364c-0.724,0.37-1.495,0.523-2.26,0.398
					c-1.76-0.277-3.083-1.911-3.636-4.143c-0.488-0.258-0.986-0.491-1.509-0.714C305.497,193.633,307.364,196.161,309.929,196.565z"
					/>
			</g>
		</g>
		<g id="Legs_00000149381042864577932770000000700511457523286962_">
			<g id="Leg_00000145753052138776445460000013550931326287923585_">
				<path style="fill:#FFCCCC;" d="M350.238,207.088c0.857,18.057,8.272,42.257,32.934,51.23
					c10.275,16.22,9.977,29.181,26.118,60.53c10.078,19.573,21.751,44.787,30.738,60.153c2.729,7.97,22.296,8.507,16.571-13.053
					c-6.262-31.122-8.916-39.084-20.425-64.731c-14.278-31.819-14.787-74.782-44.429-99.989L350.238,207.088z"/>
				<g>
					
						<path style="fill:#FF95FB;stroke:#303030;stroke-width:1.5;stroke-linecap:round;stroke-linejoin:round;stroke-miterlimit:10;" d="
						M439.987,391.926c0.354,3.379-0.003,7.419,0.902,10.693c0.906,3.274,2.111,6.231,5.38,7.153
						c1.734,0.489,3.588,0.292,5.353-0.071c5.189-1.067,10.294-3.277,14.206-6.849c1.368-1.249,2.434-2.961,3.046-4.71
						c1.024-2.929-0.331-5.927-1.435-8.827c-0.998-2.623-2.733-5.752-3.87-8.318c-2.336-5.273-1.6-4.98-6.971-15.049
						c0.085,1.278,0.974,3.626-0.231,5.042c-0.669,0.787-2.313-2.059-4.562-3.083c-1.924-0.877-4.762-1.098-6.792-0.496
						c-3.545,1.05-5.983,2.445-7.566,5.303c-1.47,2.654-0.342,4.985,0.452,7.597C439.451,385.408,439.462,386.88,439.987,391.926z"
						/>
					<path style="fill:#303030;" d="M456.369,370.99c-0.171,0.201-0.407,0.163-0.699-0.02c1.517,2.126,4.012,8.122,4.478,7.13
						c0.709-1.509-1.826-7.867-3.548-12.152C456.685,367.226,457.574,369.574,456.369,370.99z"/>
					
						<path style="fill:#FFFFFF;stroke:#303030;stroke-width:1.5;stroke-linecap:round;stroke-linejoin:round;stroke-miterlimit:10;" d="
						M471.536,398.652c0.543,1.621,0.698,6.511-7.363,11.431c-6.404,3.909-12.699,4.98-16.658,3.803
						c-2.733-0.822-4.684-4.864-6.116-9.456l0.044-0.039c0.869,2.532,2.165,4.627,4.826,5.378c1.729,0.491,3.586,0.299,5.357-0.068
						c5.186-1.064,10.288-3.274,14.201-6.847c1.365-1.251,2.44-2.962,3.044-4.71c1.028-2.933-0.327-5.931-1.435-8.825
						c-0.12-0.322-0.252-0.648-0.396-0.98C469.289,392.9,470.363,395.15,471.536,398.652z"/>
				</g>
			</g>
			<g id="Leg_00000044175073879618898390000014761283032335028407_">
				<path style="fill:#FFCCCC;" d="M351.943,206.007c-7.359,34.421-6.694,77.829-0.338,112.371
					c7.781,42.285,15.339,69.628,15.339,69.628c1.402,7.67,24.649,15.479,19.643-3.244c0,0,0.749-22.57,0.98-35.437
					c0.292-16.265-5.57-27.294-5.118-37.165c0.533-11.629,1.322-59.757,1.322-59.757s12.586-30.204-0.237-46.396H351.943z"/>
				<g>
					
						<path style="fill:#FF95FB;stroke:#303030;stroke-width:1.5;stroke-linecap:round;stroke-linejoin:round;stroke-miterlimit:10;" d="
						M386.806,385.45c2.359,0.427,4.082,0.814,3.803,5.381c-0.279,4.567,1.268,9.638,1.823,12.556
						c0.555,2.918,0.673,4.87-6.532,6.821c-7.204,1.951-9.548-0.126-14.875,3.523c-5.327,3.65-13.18,3.982-23.142,4.361
						c-9.962,0.379-14.872-2.216-16.299-3.794c-1.427-1.578,0.317-7.273,4.189-9.281c3.873-2.009,9.553-3.655,14.332-7.205
						c5.632-4.183,10.402-10.622,12.882-13.656c2.48-3.034,10.149,2.045,12.71,5.885c2.561,3.839,4.075,4.635,8.279,3.716
						C386.971,392.498,386.914,389.632,386.806,385.45z"/>
					<path style="fill:#303030;" d="M371.296,397.132c-2.523,2.79,5.364,0.68,12.145-3.267c0.001,0,0.001-0.001,0.002-0.001
						c-3.799,0.732-5.296-0.154-7.745-3.824C376.162,391.992,373.819,394.342,371.296,397.132z"/>
					
						<path style="fill:#FFFFFF;stroke:#303030;stroke-width:1.5;stroke-linecap:round;stroke-linejoin:round;stroke-miterlimit:10;" d="
						M392.251,413.326c-1.83,2.441-6.71,3.017-10.764,3.382c-4.053,0.365-7.927-0.295-14.37,2.315
						c-7.184,2.91-12.766,4.142-18.943,4.486c-6.402,0.357-13.609-1.378-16.015-3.704c-0.854-0.825-1.13-2.652-1.104-6.377
						l0.082-0.024c0.096,0.366,0.245,0.672,0.444,0.892c1.432,1.575,6.336,4.171,16.302,3.793c9.957-0.378,14.766-2.68,20.876-4.765
						c7.542-2.574,9.939-1.164,17.136-3.12c5.773-1.564,6.849-3.124,6.761-5.189C392.657,405.017,394.082,410.885,392.251,413.326z"
						/>
				</g>
			</g>
			<g>
				<path style="fill:#303030;" d="M394.118,197.044c8.789,11.398,20.162,19.532,28.443,50.676
					c7.073,26.602,9.376,35.836,15.208,50.355c6.048,15.056,11.637,25.991,14.494,40.26c0,0-1.28,7.559-14.957,13.671
					c-9.951,4.447-16.652-0.373-16.652-0.373c-10.022-16.871-28.732-50.926-35.8-68.413c0.289,17.465,0.49,28.441,2.913,43.985
					c1.43,9.177,2.275,24.429,2.275,24.429c-1.751,2.118-4.031,5.978-16.392,7.283c-14.538,1.535-16.894-4.886-16.894-4.886
					s-11.896-47.774-13.096-67.576c-1.201-19.802-3.445-57.676,4.58-85.008L394.118,197.044z"/>
				<path style="fill:none;stroke:#FFFFFF;stroke-width:1.5;stroke-linecap:round;stroke-linejoin:round;stroke-miterlimit:10;" d="
					M363.659,208.807c-0.368,10.24,0.185,14.266,0.771,23.094c0.244,3.673,2.017,11.212,6.346,18.41
					c4.33,7.197,6.805,13.85,12.228,27.787"/>
			</g>
		</g>
		<g id="Head_00000058556449488426242280000012881592023339548308_">
			<g>
				
					<ellipse transform="matrix(0.9984 -0.0574 0.0574 0.9984 -6.4809 21.2898)" style="fill:#303030;" cx="367.385" cy="123.468" rx="18.916" ry="18.067"/>
			</g>
			<path style="fill:#FFCCCC;" d="M375.22,111.138c0.496,11.864,6.732,14.08,6.732,14.08c-0.705,1.579-1.214,3.236-1.513,4.926
				c1.207-1.803,3.095-3.299,5.308-3.605c2.213-0.306,4.686,0.839,5.378,2.865c0.684,2.003-0.551,4.302-2.458,5.376
				c-1.908,1.074-4.597,1.298-7.1,0.199l-0.003-0.002c-0.79,2.086-2.604,4.231-5.288,5.734l1.318,7.984l5.595,1.087
				c0,0-5.451,4.998-14.007,5.49c-8.556,0.492-10.764-3.437-10.764-3.437l5.346-1.916l0.329-6.412
				c-3.749-0.158-14.782-2.907-13.792-17.196c0.199-2.869,0.989-5.538,2.177-7.868l0.001,0
				C357.529,108.999,368.083,108.395,375.22,111.138z"/>
			<path style="fill:#303030;" d="M372.421,131.598c0,0.309-0.25,0.559-0.559,0.559c-0.309,0-0.559-0.25-0.559-0.559
				c0-0.309,0.25-0.559,0.559-0.559C372.171,131.039,372.421,131.289,372.421,131.598z"/>
			<path style="fill:#303030;" d="M376.474,109.976c2.925,1.077-1.506,5.913-1.506,5.913l-6.893-0.855l0.044-4.128l-1.721,3.77
				c0,0-9.992-0.507-13.454,2.133C355.079,111.014,364.324,105.503,376.474,109.976z"/>
			<g>
				<path style="fill:none;stroke:#303030;stroke-width:1.5;stroke-linecap:round;stroke-linejoin:round;stroke-miterlimit:10;" d="
					M388.391,129.462c-0.54-0.314-1.816-0.482-3.051-0.038c-1.235,0.445-2.201,1.523-2.468,2.757"/>
				<path style="fill:none;stroke:#303030;stroke-width:1.5;stroke-linecap:round;stroke-linejoin:round;stroke-miterlimit:10;" d="
					M386.349,131.014c-0.398-0.229-1.775-0.78-3.005,0.024"/>
			</g>
			<g>
				<path style="fill:#303030;" d="M371.862,142.331c0,0-3.65,1.53-7.769,1.176l-0.108,2.106
					C363.985,145.613,368.721,145.617,371.862,142.331z"/>
				<path style="fill:none;stroke:#303030;stroke-width:1.5;stroke-linecap:round;stroke-linejoin:round;stroke-miterlimit:10;" d="
					M365.208,121.633c-0.329,1.506-0.905,3.465-1.777,4.759c-0.517,0.767-1.205,1.335-0.813,2.224
					c0.359,0.814,1.315,1.352,2.24,1.456"/>
				<g>
					<path style="fill:#303030;" d="M366.231,133.477c-1.139,0.2-2.509,0.592-2.801,1.641c-0.717-1.139-1.662-1.384-1.662-1.384
						s1.021-0.732,2.218-0.746C365.184,132.972,366.231,133.477,366.231,133.477z"/>
					
						<path style="fill:#FF95FB;stroke:#303030;stroke-width:1.5;stroke-linecap:round;stroke-linejoin:round;stroke-miterlimit:10;" d="
						M368.2,133.792c-0.301,0.591-1.623,2.074-3.991,2.005c-0.517-0.031-0.575-0.346-0.778-0.68
						c0.027-0.491,0.713-1.491,2.801-1.641C366.816,133.77,367.64,133.836,368.2,133.792z"/>
					<path style="fill:#FFFFFF;" d="M366.903,133.66c0,0-0.038,0.443-0.717,0.586c-0.679,0.143-2.165,0.122-2.676-0.118
						s-0.699-0.878-0.699-0.878s0.885-0.402,1.51-0.282C364.945,133.088,366.686,133.62,366.903,133.66z"/>
					
						<path style="fill:none;stroke:#303030;stroke-width:1.5;stroke-linecap:round;stroke-linejoin:round;stroke-miterlimit:10;" d="
						M360.659,133.902c1.152-0.083,2.173-0.862,3.327-0.915c0.9-0.041,1.751,0.363,2.619,0.602c0.868,0.239,1.913,0.272,2.549-0.365
						"/>
					
						<path style="fill:none;stroke:#303030;stroke-width:1.5;stroke-linecap:round;stroke-linejoin:round;stroke-miterlimit:10;" d="
						M361.667,133.777c0.8,0.316,1.471,0.792,1.886,1.546c0.067,0.122,0.184,0.423,0.655,0.474c0.865,0.094,3.172-0.396,4.03-2.076"
						/>
				</g>
				<g>
					<g>
						<path style="fill:#FFFFFF;" d="M353.183,124.913c0.576-1.302,2-2.179,3.476-2.139c1.476,0.039,3.504,0.953,3.67,3.041
							C359.566,127.815,354.859,127.938,353.183,124.913z"/>
						<path style="fill:#303030;" d="M354.844,126.074c0.397,1.021,1.588,1.519,2.659,1.11c1.072-0.408,1.619-1.567,1.222-2.589
							c-0.397-1.021-1.588-1.519-2.659-1.11C354.994,123.894,354.447,125.052,354.844,126.074z"/>
						<polygon style="fill:#FFFFFF;" points="358.873,124.552 356.785,125.335 359.059,125.68 						"/>
						
							<path style="fill:none;stroke:#303030;stroke-width:1.5;stroke-linecap:round;stroke-linejoin:round;stroke-miterlimit:10;" d="
							M360.329,125.814c-0.784-1.803-2.138-2.354-3.431-2.603c-1.417-0.273-2.512,0.017-3.726,1.2"/>
					</g>
					
						<path style="fill:none;stroke:#303030;stroke-width:1.5;stroke-linecap:round;stroke-linejoin:round;stroke-miterlimit:10;" d="
						M351.854,123.413c0.212,0.534,0.745,0.925,1.318,0.968"/>
					
						<path style="fill:none;stroke:#303030;stroke-width:1.5;stroke-linecap:round;stroke-linejoin:round;stroke-miterlimit:10;" d="
						M359.246,118.578c-2.126-0.292-4.144,0.358-5.668,1.632"/>
				</g>
				<g>
					<g>
						<path style="fill:#FFFFFF;" d="M375.049,125.041c-0.603-1.29-2.046-2.136-3.52-2.065s-3.483,1.027-3.605,3.118
							C368.729,128.078,373.437,128.101,375.049,125.041z"/>
						<path style="fill:#303030;" d="M369.68,126.239c0.418,1.013,1.619,1.485,2.682,1.055c1.063-0.43,1.586-1.6,1.168-2.613
							c-0.418-1.013-1.619-1.485-2.682-1.055C369.784,124.056,369.261,125.226,369.68,126.239z"/>
						<polygon style="fill:#FFFFFF;" points="373.676,124.634 371.604,125.46 373.885,125.758 						"/>
						
							<path style="fill:none;stroke:#303030;stroke-width:1.5;stroke-linecap:round;stroke-linejoin:round;stroke-miterlimit:10;" d="
							M367.923,126.093c0.746-1.819,2.087-2.399,3.375-2.675c1.411-0.303,2.512-0.036,3.751,1.121"/>
					</g>
					
						<path style="fill:none;stroke:#303030;stroke-width:1.5;stroke-linecap:round;stroke-linejoin:round;stroke-miterlimit:10;" d="
						M376.345,123.513c-0.201,0.538-0.725,0.941-1.297,0.995"/>
					
						<path style="fill:none;stroke:#303030;stroke-width:1.5;stroke-linecap:round;stroke-linejoin:round;stroke-miterlimit:10;" d="
						M369.24,118.502c2.578-0.385,4.24-0.077,6.182,1.579"/>
				</g>
			</g>
		</g>
		<g id="Chest_00000070101895008371648770000007854180305764925057_">
			<g>
				
					<path id="Chest_00000065054321956620060070000017100064213157827974_" style="fill:#FFFFFF;stroke:#303030;stroke-width:1.5;stroke-linecap:round;stroke-linejoin:round;stroke-miterlimit:10;" d="
					M344.731,186.501c1.026,8.459-1.072,13.142,3.508,14.945c0,0,8.133,2.575,23.291,0.887c15.103-1.682,22.588-5.288,22.588-5.288
					c4.567-3.602,1.156-8.297,0.497-16.033c0,0,3.942-32.168-2.526-33.675l-8.901,2.444c-7.448,5.61-20.89,7.309-24.771,2.053
					l-9.595,3.093C343.66,162.616,335.081,174.635,344.731,186.501z"/>
			</g>
		</g>
		<g id="Arm_00000092447085244223826730000016688803286380777880_">
			<g id="Arm_00000065768269688034020320000006382770836754113419_">
				<path style="fill:#FFCCCC;" d="M423.491,97.917c0.014,3.227,1.616,21.837,1.715,26.05c0.117,4.972-1.532,8.622-3.015,11.841
					c-2.299,4.993-9.459,14.189-15.344,23.176c-4.383,6.694-7.751,9.643-11.009,17.384c-3.895-3.206-8.028-7.897-9.056-15.128
					c-1.249-8.785,1.401-13.176,1.401-13.176l4.665-4.474c1.552-1.489,2.982-3.096,4.274-4.815
					c4.976-6.621,10.03-14.558,10.03-14.558s3.645-23.724,3.709-25.948c0.064-2.224-0.142-3.542-1.018-5.232
					c-0.876-1.69-1.842-3.117-2.803-4.582c-0.696-1.061-1.35-2.148-1.961-3.26c-0.511-0.929-1.371-2.052-1.551-3.1
					c-0.036-0.21-0.047-0.432,0.027-0.632c0.312-0.835,1.52-0.848,2.165-0.461c0.903,0.542,1.512,1.421,2.155,2.229
					c0.346,0.435,1.026,1.377,1.634,0.715c0.299-0.325,0.313-0.815,0.287-1.256c-0.214-3.541-1.957-6.784-2.965-10.185
					c-0.238-0.803-0.371-1.826,0.291-2.339c0.851-0.659,1.896,0.102,2.431,0.775c0.617,0.777,1.016,1.701,1.403,2.606
					c0.315,0.736,0.631,1.473,0.946,2.209c0.109,0.256,0.614,1.623,0.847,1.885c0.163,0.184-0.311-3.013-0.437-3.685
					c-0.315-1.679-0.705-3.348-1.151-4.997c-0.16-0.592,0.053-1.192,0.433-1.68c0.504-0.648,1.477-0.981,2.216-0.624
					c0.53,0.256,0.932,0.722,1.24,1.224c0.026-0.6,0.696-1.02,1.293-0.954c0.904,0.099,1.744,0.865,2.157,1.634
					c0.276,0.513,0.442,1.077,0.586,1.641c0.557,2.176,0.818,4.42,1.392,6.591c0.04,0.151,0.084,0.307,0.185,0.427
					c0.301,0.356,0.646,0.078,0.722-0.281c0.289-1.359,0.442-2.747,0.456-4.137c0.004-0.396-0.002-0.801,0.122-1.177
					c0.124-0.376,0.407-0.727,0.794-0.812c0.663-0.146,1.219,0.505,1.522,1.112c1.295,2.589,0.765,5.567,0.689,8.356
					c-0.045,1.629-0.033,4.435-0.167,6.069C424.488,90.207,423.477,94.689,423.491,97.917z"/>
				<path style="fill:none;stroke:#303030;stroke-width:1.5;stroke-linecap:round;stroke-linejoin:round;stroke-miterlimit:10;" d="
					M413.773,85.495c2.444,0.615,4.385,2.869,4.629,5.378"/>
				<path style="fill:none;stroke:#303030;stroke-width:1.5;stroke-linecap:round;stroke-linejoin:round;stroke-miterlimit:10;" d="
					M414.975,66.985c-0.484,1.069,0.077,2.682,0.241,3.844c0.332,2.342,0.778,4.791,1.11,7.134"/>
			</g>
		</g>
	</g>
</g>
<g id="Character_2">
	<g id="Character_00000101092704829959881510000012281534663813656731_">
		<g id="Legs_00000121277420462383616430000014265994705209117861_">
			<g id="Leg_00000123417645030235604150000001758100036962439051_">
				<path style="fill:#D48983;" d="M153.045,222.322c0,0-35.478,75.022-46.432,91.733c-5.756,8.781-9.971,15.837-16.53,25.508
					c-9.637,14.207-18.336,25.964-22.981,32.544c-6.001,0.726-15.608-3.655-20.38-11.753c7.625-18.711,17.967-44.478,28.421-59.919
					l19.903-87.331C112.292,216.202,153.045,222.322,153.045,222.322z"/>
				
					<path style="fill:#FFFFFF;stroke:#303030;stroke-width:1.5;stroke-linecap:round;stroke-linejoin:round;stroke-miterlimit:10;" d="
					M47.892,357.482l1.34-3.287c-2.304-0.554-5.531,1.772-4.396,6.88c-2.712,6.182-3.461,10.388-5.189,13.796
					c-1.469,7.836,10.209,21.804,19.697,9.279c0,0,3.241-4.274,7.569-10.224c5.073-0.811,6.153-4.948,4.345-7.63l-2.146,2.987
					C60.953,369.002,52.19,364.51,47.892,357.482z"/>
				<g>
					<path style="fill:#F55571;" d="M65.732,375.546l-2.647,3.598c-2.368,2.552-4.588,2.886-9.882,3.763
						c-1.422,0.236-2.44,1.311-3.379,2.722c-0.232-2.338-3.778-4.553-7.296-4.875h0c0.756-1.378,1.096-2.574,0.589-3.659
						c-1.507-3.224-1.578-5.629-1.09-8.549l1.714-4.824c0,0-3.115,0.681-4.87,5.393c-1.755,4.713-2.714,6.803-5.485,10.779
						c-6.474,9.291-18.74,17.852-15.55,30.933c3.697,15.345,17.393,14.232,21.257,10.97c5.204-3.159,6.226-7.609,9.085-15.376
						c2.942-7.992,5.866-13.302,9.748-18.043c3.882-4.74,5.802-5.325,7.591-8.546C66.604,377.873,65.732,375.546,65.732,375.546z"/>
					<g>
						
							<path style="fill:none;stroke:#303030;stroke-width:1.5;stroke-linecap:round;stroke-linejoin:round;stroke-miterlimit:10;" d="
							M26.356,405.296c3.898,3.452,7.672,5.132,12.813,5.957"/>
						
							<path style="fill:none;stroke:#303030;stroke-width:1.5;stroke-linecap:round;stroke-linejoin:round;stroke-miterlimit:10;" d="
							M28.898,404.775c3.907-0.076,9.74-0.524,13.633-0.183"/>
						
							<path style="fill:none;stroke:#303030;stroke-width:1.5;stroke-linecap:round;stroke-linejoin:round;stroke-miterlimit:10;" d="
							M37.62,408.921c-2.843-3.83-4.979-6.543-8.144-10.112"/>
						
							<path style="fill:none;stroke:#303030;stroke-width:1.5;stroke-linecap:round;stroke-linejoin:round;stroke-miterlimit:10;" d="
							M32.031,398.276c4.336-0.351,8.994-0.582,13.502-0.055"/>
						
							<path style="fill:none;stroke:#303030;stroke-width:1.5;stroke-linecap:round;stroke-linejoin:round;stroke-miterlimit:10;" d="
							M41.092,401.21c-2.562-3.833-4.858-6.206-7.912-9.661"/>
						
							<path style="fill:none;stroke:#303030;stroke-width:1.5;stroke-linecap:round;stroke-linejoin:round;stroke-miterlimit:10;" d="
							M36.039,391c4.188,0.12,8.694-0.459,12.817,0.281"/>
						
							<path style="fill:none;stroke:#303030;stroke-width:1.5;stroke-linecap:round;stroke-linejoin:round;stroke-miterlimit:10;" d="
							M40.998,383.419c2.28,1.757,4.736,3.288,7.319,4.56"/>
						
							<path style="fill:none;stroke:#303030;stroke-width:1.5;stroke-linecap:round;stroke-linejoin:round;stroke-miterlimit:10;" d="
							M44.375,395.174c-2.499-3.708-3.911-7.505-6.352-10.553"/>
					</g>
					
						<path style="fill:none;stroke:#303030;stroke-width:1.5;stroke-linecap:round;stroke-linejoin:round;stroke-miterlimit:10;" d="
						M37.286,373.077c-0.628,1.762-0.413,3.616-0.357,5.443c0.061,1.965-0.915,3.463-1.903,5.156
						c-2.628,4.504-5.001,8.664-8.063,13.386c-1.267,1.953-2.809,3.848-4.905,4.86c-1.254,0.605-2.686,0.835-4.066,0.652"/>
					
						<path style="fill:none;stroke:#303030;stroke-width:1.5;stroke-linecap:round;stroke-linejoin:round;stroke-miterlimit:10;" d="
						M59.767,386.062c-1.561,1.166-4.878,1.749-5.922,2.591c-0.513,0.414-0.846,1.006-1.164,1.584
						c-2.833,5.136-5.567,10.327-8.201,15.568c-0.629,1.253-1.258,2.522-1.581,3.885c-0.615,2.595-0.082,5.308,0.452,7.92"/>
					
						<path style="fill:#FFFFFF;stroke:#303030;stroke-width:1.5;stroke-linecap:round;stroke-linejoin:round;stroke-miterlimit:10;" d="
						M44.99,414.857c-3.743,11.719-12.072,16.119-20.049,13.618c-7.977-2.501-11.215-11.889-10.766-16.87
						c0.431-4.945,3.084-10.175,5.62-14.141c-2.133,3.981-3.183,8.344-1.961,13.358c3.702,15.347,17.39,14.237,21.261,10.98
						C42.026,420.014,43.63,417.827,44.99,414.857z"/>
				</g>
			</g>
			<g id="Leg_00000170998456794943236560000009784801953016025535_">
				<path style="fill:#D48983;" d="M135.354,336.473c-0.377-10.927,0.993-16.94-2.225-30.866
					c-5.557-24.052-17.664-61.164-38.082-92.504l69.727,8.257c0,0,6.134,44.384,3.922,94.779
					c-0.937,21.338-4.628,43.66-6.261,64.241c-5.054,5.6-17.791,4.772-22.364,0.855
					C138.353,368.115,135.878,351.663,135.354,336.473z"/>
				
					<path style="fill:#FFFFFF;stroke:#303030;stroke-width:1.5;stroke-linecap:round;stroke-linejoin:round;stroke-miterlimit:10;" d="
					M140.071,381.236l-0.537-4.045c-2.266,0.695-4.162,4.548-0.586,8.368c0.811,6.701,1.154,10.554,1.401,14.368
					c2.723,7.493,19.883,13.576,21.678-2.034c0,0,0.616-5.328,1.314-12.653c3.955-3.28,2.313-7.008-0.607-8.396l-0.299,3.538
					C155.267,384.29,147.347,385.099,140.071,381.236z"/>
				<g>
					<g>
						<path style="fill:#F55571;" d="M199.967,417.168c-0.087-1.13-1.495-3.946-8.601-6.54c-4.324-1.578-6.779-2.791-10.402-5.367
							c-4.197-2.984-11.51-10.049-13.173-11.719c-2.164-2.174-8.027-2.402-11.23,1.427c-0.93-0.531-1.929-0.977-2.98-0.881
							c-1,0.091-1.883,0.662-2.72,1.215c-1.556,1.029-2.054,1.465-3.184,2.365c-1.661,1.322-3.95,3.234-5.815,2.219
							c-1.689-0.919-1.953-5.543-1.953-5.543l-0.296-2.969c-0.545-0.072-2.277,0.11-2.888,1.259
							c-1.339,2.519-0.643,5.005-2.179,10.168c-1.069,3.594-0.921,8.361-0.921,8.361c2.319,2.46,7.148,3.931,12.988,4.416
							c5.84,0.484,12.226,0.908,17.353,2.894c7.093,2.747,13.221,3.549,13.221,3.549c4.574,0.566,10.872,0.607,16.301-0.422
							C198.917,420.571,200.054,418.298,199.967,417.168z"/>
					</g>
					
						<path style="fill:none;stroke:#303030;stroke-width:1.5;stroke-linecap:round;stroke-linejoin:round;stroke-miterlimit:10;" d="
						M173.336,410.815c2.464-2.633,8.211-5.145,12.223-3.381"/>
					
						<path style="fill:none;stroke:#303030;stroke-width:1.5;stroke-linecap:round;stroke-linejoin:round;stroke-miterlimit:10;" d="
						M179.038,403.789c-2.07,0.895-3.301,2.167-4.842,4.26"/>
					
						<path style="fill:none;stroke:#303030;stroke-width:1.5;stroke-linecap:round;stroke-linejoin:round;stroke-miterlimit:10;" d="
						M180.964,405.261c-2.524-0.344-6.177,0.056-12.323,0.517"/>
					
						<path style="fill:none;stroke:#303030;stroke-width:1.5;stroke-linecap:round;stroke-linejoin:round;stroke-miterlimit:10;" d="
						M174.349,399.99c-2.07,0.895-3.103,1.9-4.644,3.993"/>
					
						<path style="fill:none;stroke:#303030;stroke-width:1.5;stroke-linecap:round;stroke-linejoin:round;stroke-miterlimit:10;" d="
						M176.275,401.461c-2.524-0.344-6.177,0.056-12.323,0.517"/>
					
						<path style="fill:none;stroke:#303030;stroke-width:1.5;stroke-linecap:round;stroke-linejoin:round;stroke-miterlimit:10;" d="
						M169.815,395.667c-2.07,0.895-3.457,2.691-4.998,4.785"/>
					
						<path style="fill:none;stroke:#303030;stroke-width:1.5;stroke-linecap:round;stroke-linejoin:round;stroke-miterlimit:10;" d="
						M171.586,397.663c-2.524-0.344-6.177,0.055-12.323,0.517"/>
					
						<path style="fill:none;stroke:#303030;stroke-width:1.5;stroke-linecap:round;stroke-linejoin:round;stroke-miterlimit:10;" d="
						M135.347,399.383c0.461,2.017,1.334,3.86,3.077,4.973c1.744,1.114,3.931,1.51,5.955,1.08c3.189-0.678,5.835-3.266,9.09-3.433
						c2.368-0.122,4.587,1.072,6.612,2.306c3.742,2.279,9.56,6.425,10.241,7.713c0.681,1.288,0.977,5.144,1.262,8.861"/>
					
						<path style="fill:#FFFFFF;stroke:#303030;stroke-width:1.5;stroke-linecap:round;stroke-linejoin:round;stroke-miterlimit:10;" d="
						M199.429,425.571c-5.564,2.952-14.369,3.317-21.69,2.922c-7.329-0.394-13.064-4.271-17.117-5.201
						c-5.562-1.279-10.405-0.839-15.059-1.524c-4.654-0.677-10.059-1.606-11.392-3.486c-1.333-1.871-1.109-3.896-0.546-7.119
						c2.317,2.459,7.153,3.932,12.989,4.415c5.837,0.483,12.229,0.906,17.353,2.891c7.096,2.747,13.216,3.553,13.216,3.553
						c4.576,0.562,10.878,0.604,16.306-0.424c5.428-1.028,6.563-3.296,6.477-4.426C200.76,418.464,202.169,424.112,199.429,425.571z
						"/>
				</g>
			</g>
			<g>
				<path style="fill:#303030;" d="M93.214,210.879c0,0-16.256,72.951-18.726,83.034c-2.469,10.083-12.48,23.763-18.689,38.529
					c5.314,9.211,17.249,19.088,28.567,20.117c0,0,12.346-15.615,22.224-31.472c9.877-15.857,18.314-35.998,18.314-35.998
					s6.803,20.758,7.208,29.607c0.405,8.848-0.592,26.013,2.134,45.65c10.957,3.38,24.429,2.873,34.076-1.154
					c1.901-29.528,2.291-53.55,2.586-69.189c0.295-15.639-1.757-52.722-5.258-73.587L93.214,210.879z"/>
				<g>
					<path style="fill:#00826F;" d="M61.269,321.087c-0.688,1.31-2.096,4.067-2.096,4.067s3.678,8.299,11.714,13.972
						c8.036,5.673,17.838,7.745,17.838,7.745l2.354-3.159c0,0,2.657,3.451-0.652,6.287c-3.309,2.836-1.261,4.906-5.988,7.417
						c-4.727,2.511-15.443-2.847-20.643-6.156c-5.2-3.309-13.069-11.503-12.601-16.073c0.468-4.57,3.147-3.939,3.935-6.618
						C55.918,325.89,56.693,320.066,61.269,321.087z"/>
					
						<path style="fill:#00826F;stroke:#303030;stroke-width:1.5;stroke-linecap:round;stroke-linejoin:round;stroke-miterlimit:10;" d="
						M58.123,338.775c8.916,5.335,19.431,7.957,29.807,7.431"/>
				</g>
				<g>
					<path style="fill:#00826F;" d="M133.027,349.052c0.179,1.468,0.346,3.904,0.346,3.904s7.416,4.677,16.979,4.737
						c9.563,0.061,18.306-3.933,18.306-3.933l0.238-4.108c0,0,2.867,1.302,1.803,5.521c-1.063,4.219,0.853,5.624-1.523,10.386
						c-2.376,4.762-11.751,5.885-17.738,6.143c-5.987,0.257-15.383-1.133-17.55-5.15c-2.166-4.017-0.917-5.981-1.778-8.63
						C131.251,355.274,129.995,350.056,133.027,349.052z"/>
					
						<path style="fill:#00826F;stroke:#303030;stroke-width:1.5;stroke-linecap:round;stroke-linejoin:round;stroke-miterlimit:10;" d="
						M139.975,364.702c10.077-0.719,19.921-4.579,27.906-10.942"/>
				</g>
			</g>
		</g>
		<g id="Head_00000040550022468174172370000011480407451626903217_">
			<path style="fill:#303030;" d="M143.161,102.131c-2.78,8.746,1.706,20.682,10.864,23.593c9.157,2.911,19.518-4.307,22.298-13.053
				c2.78-8.746-2.39-18.196-11.548-21.106C155.618,88.654,145.941,93.385,143.161,102.131z"/>
			<path style="opacity:0.4;fill:#D48983;" d="M143.161,102.131c-2.78,8.746,1.706,20.682,10.864,23.593
				c9.157,2.911,19.518-4.307,22.298-13.053c2.78-8.746-2.39-18.196-11.548-21.106C155.618,88.654,145.941,93.385,143.161,102.131z"
				/>
			<path style="fill:#D48983;" d="M145.164,119.592c-0.528,1.921-0.36,3.9,0.57,5.64l-3.443,10.552l-5.508,0.204
				c0.269,3.425,4.754,17.275,13.736,19.746c8.982,2.471,13.23-11.321,13.23-11.321l-4.941-3.139l1.409-6.415
				c1.087,0.313,4.571,0.601,7.1-0.779c2.529-1.38,4.526-3.495,6.043-7.543c1.438-3.837,1.052-7.66,1.205-9.076
				c0.153-1.415,1.198-2.303,1.994-5.504c1.167-4.696-0.292-9.16-0.292-9.16c-2.544,0.446-7.439-7.092-15.691-7.555
				c-5.517,0.867-8.175,2.762-9.709,5.46c0.535,2.808,1.094,5.8-0.086,9.258c-0.778,2.397-1.337,2.326-1.932,0.925
				c-0.811-1.826-2.316-3.624-4.286-4.22c-2.565-0.776-4.73,0.202-5.628,1.958c-1.064,2.082-0.073,4.127,1.49,5.401
				c1.562,1.274,3.921,1.981,5.883,1.41C146.307,115.435,145.692,117.671,145.164,119.592z"/>
			<g>
				<path style="fill:none;stroke:#303030;stroke-width:1.5;stroke-linecap:round;stroke-linejoin:round;stroke-miterlimit:10;" d="
					M143.535,105.31c0.144,0.597,0.189,1.219,0.131,1.83"/>
				<path style="fill:none;stroke:#303030;stroke-width:1.5;stroke-linecap:round;stroke-linejoin:round;stroke-miterlimit:10;" d="
					M141.124,105.635c0.321,0.37,0.554,1.167,0.498,1.653"/>
			</g>
			<g>
				<path style="fill:#303030;" d="M160.217,134.859c-4.109-1.236-8.532-3.41-10.866-5.823c0.283,1.967,2.687,5.616,10.219,8.771
					L160.217,134.859z"/>
				<g>
					<g>
						<path style="fill:#FFFFFF;" d="M168.419,114.143c0.518-1.013,1.653-1.378,2.829-1.28c1.176,0.098,2.794,0.649,2.832,2.322
							C173.381,116.748,169.619,116.633,168.419,114.143z"/>
						<path style="fill:#303030;" d="M171.79,115.888c-0.637,0.481-1.566,0.332-2.073-0.331c-0.508-0.664-0.402-1.591,0.235-2.072
							c0.637-0.481,1.566-0.333,2.073,0.331C172.532,114.479,172.427,115.407,171.79,115.888z"/>
						<polygon style="fill:#FFFFFF;" points="169.877,113.401 170.87,114.686 169.329,114.029 						"/>
						
							<path style="fill:none;stroke:#303030;stroke-width:1.5;stroke-linecap:round;stroke-linejoin:round;stroke-miterlimit:10;" d="
							M174.317,114.913c-0.527-1.306-1.808-1.81-2.984-1.908c-1.176-0.098-2.481,0.436-2.914,1.138"/>
					</g>
					
						<path style="fill:none;stroke:#303030;stroke-width:1.5;stroke-linecap:round;stroke-linejoin:round;stroke-miterlimit:10;" d="
						M170.28,107.055c2.025,0.025,4.865,1.182,5.76,2.813"/>
				</g>
				<g>
					<g>
						<path style="fill:#FFFFFF;" d="M155.919,110.989c0.562-0.989,1.712-1.304,2.882-1.155c1.17,0.149,2.763,0.77,2.728,2.443
							C160.762,113.808,157.01,113.529,155.919,110.989z"/>
						<path style="fill:#303030;" d="M159.294,112.84c-0.648,0.466-1.573,0.297-2.065-0.378c-0.493-0.675-0.367-1.6,0.281-2.066
							c0.648-0.466,1.573-0.297,2.066,0.378C160.068,111.448,159.942,112.373,159.294,112.84z"/>
						<polygon style="fill:#FFFFFF;" points="157.437,110.31 158.402,111.618 156.876,110.926 						"/>
						
							<path style="fill:none;stroke:#303030;stroke-width:1.5;stroke-linecap:round;stroke-linejoin:round;stroke-miterlimit:10;" d="
							M161.778,112.016c-0.47-1.328-1.727-1.887-2.898-2.036c-1.17-0.149-2.498,0.327-2.961,1.01"/>
					</g>
					
						<path style="fill:none;stroke:#303030;stroke-width:1.5;stroke-linecap:round;stroke-linejoin:round;stroke-miterlimit:10;" d="
						M155.611,104.443c1.912-1.012,5.003-0.862,6.962,0.399"/>
				</g>
				<path style="fill:none;stroke:#303030;stroke-width:1.5;stroke-linecap:round;stroke-linejoin:round;stroke-miterlimit:10;" d="
					M166.336,109.886c-0.408,3.381,0.294,5.777,0.596,7.619c0.231,1.413-0.328,3.583-3.475,2.819"/>
				<g>
					
						<path style="fill:none;stroke:#303030;stroke-width:1.5;stroke-linecap:round;stroke-linejoin:round;stroke-miterlimit:10;" d="
						M141.692,109.352c0.554-0.205,1.771-0.156,2.852,0.458c1.08,0.615,1.806,1.776,1.856,2.971"/>
					
						<path style="fill:none;stroke:#303030;stroke-width:1.5;stroke-linecap:round;stroke-linejoin:round;stroke-miterlimit:10;" d="
						M143.345,111.13c0.408-0.149,1.782-0.44,2.799,0.509"/>
				</g>
			</g>
			<path style="fill:none;stroke:#303030;stroke-width:1.5;stroke-linecap:round;stroke-linejoin:round;stroke-miterlimit:10;" d="
				M164.201,125.04c-2.492,0.03-5.932-1.149-7.255-3.615"/>
			<path style="fill:#303030;" d="M155.819,96.579c0.54,2.308-2.911,5.054-4.952,4.124l-4.464-4.297
				c0.216-4.246,2.428-5.526,3.913-6.331c1.895-1.027,4.401-0.801,6.004-2.243c1.009-0.908,1.44-2.409,1.065-3.713
				c1.609,0.144,3.087,1.283,3.636,2.802c1.609-1.451,3.742-2.513,5.89-2.228c2.148,0.285,4.117,2.287,3.803,4.431
				c1.003-0.785,2.462-0.594,3.642-0.117c1.384,0.559,2.666,1.503,3.344,2.832c0.679,1.329,0.643,3.073-0.323,4.212
				c1.519,0.597,2.476,2.365,2.145,3.964c-0.123,0.592-0.399,1.157-0.413,1.762c-0.02,0.932,0.737,1.736,1.617,1.985
				c0.411,0.117,0.482,0.685,0.094,0.865c-0.991,0.459-2.212,0.49-3.263,0.132c-1.55-0.527-2.775-1.737-3.748-3.054
				c-0.45,0.83-1.495,1.139-2.439,1.167c-3.169,0.093-6.089-2.163-7.452-5.025c-1.177,0.849-2.768,0.943-4.176,0.587
				C158.333,98.077,157.065,97.324,155.819,96.579z"/>
		</g>
		<g id="Arm_00000029742458288748035940000008932911501236450206_">
			<g>
				<path style="fill:#D48983;" d="M221.27,216.012c3.49,0.83,8.387,2.875,12.606,4.532c1.788,0.702,4.939,1.637,6.751,2.237
					c3.263,1.081,7.164,2.411,8.182,2.727c0.869,0.27,2.275,0.342,2.604-0.67c0.329-1.012-0.685-1.812-1.911-2.366
					c-1.524-0.689-3.698-1.616-4.566-2.011c-0.868-0.394-0.532-0.886,0.008-0.796c1.379,0.231,7.01,1.274,8.482,1.388
					s3.468,0.271,3.895-1.292c0.325-1.188-0.748-1.891-2.806-2.297c-3.807-0.752-8.016-1.584-8.852-1.75
					c-0.837-0.165-0.869-0.709,0.031-0.672c0.899,0.036,7.948,0.423,9.852,0.496c1.904,0.074,3.692,0.217,3.937-1.36
					c0.217-1.403-1.575-1.917-2.789-2.142c-1.374-0.255-3.794-0.494-5.863-0.74c-1.945-0.23-3.104-0.426-3.775-0.535
					c-0.671-0.108-1.36-0.277-1.345-0.61c0.015-0.332,0.2-0.364,0.979-0.423c3.72-0.283,4.344-0.293,7.65-0.459
					c1.926-0.097,2.831-0.07,3.925-0.672c0.777-0.427,0.811-1.866-0.059-2.404c-1.376-0.851-2.961-0.652-5.051-0.726
					c-2.558-0.092-7.012-0.001-10.061-0.197c-1.669-0.108-2.101-0.531-2.215-0.861c-0.242-0.698,1.475-1.505,2.211-1.798
					c1.124-0.448,2.316-0.835,3.228-1.664c0.652-0.592,1.045-1.952,0.214-2.583c-0.199-0.151-0.451-0.214-0.699-0.244
					c-1.236-0.152-2.786,0.434-4.001,0.693c-1.453,0.31-2.894,0.677-4.319,1.099c-1.967,0.583-3.894,1.185-6.085,1.596
					c-2.191,0.412-5.184,1.046-6.736,0.54c-6.569-2.142-17.9-6.992-24.085-10.021c-4.23-8.968-8.57-22.061-11.141-28.318
					c-2.673-6.505-7.042-9.855-10.363-11.361c-5.362,4.891-13.131,15.121-7.566,31.091c1.652,4.741,5.496,12.398,8.084,17.173
					c3.119,5.754,6.456,8.224,13.688,9.804C200.538,211.993,217.78,215.182,221.27,216.012z"/>
				<path style="fill:none;stroke:#303030;stroke-width:1.5;stroke-linecap:round;stroke-linejoin:round;stroke-miterlimit:10;" d="
					M238.56,208.46c-1.515,2.534-4.699,3.949-7.595,3.375"/>
			</g>
			<g>
				<path style="fill:#F55571;" d="M178.724,150.712c8.96,3.994,9.613,7.033,12.132,13.475s10.326,25.764,10.326,25.764
					s7.002,3.549,10.692,5.149c3.691,1.6,4.751,2.459,5.202,3.794l-4.694,15.639c-1.369,1.864-4.288,1.175-9.272,0.145
					c-7.076-1.462-14.832-3.31-17.813-4.737c-2.98-1.428-5.421-3.751-9.298-10.532c-2.577-4.509-4.144-6.999-6.081-11.429
					S167.302,158.315,178.724,150.712z"/>
				<path style="fill:#F55571;" d="M223.427,201.337c0,0-2.946,2.268-4.168,6.37c-1.222,4.103-0.392,7.964-0.392,7.964l-6.485-1.137
					c-2.031-5.487,0.95-13.391,4.694-15.639L223.427,201.337z"/>
				<path style="fill:none;stroke:#303030;stroke-width:1.5;stroke-linecap:round;stroke-linejoin:round;stroke-miterlimit:10;" d="
					M212.382,214.534c-2.031-5.487,0.95-13.391,4.694-15.639"/>
			</g>
		</g>
		<g id="Chest_00000085218159365489476380000015472490522387921073_">
			
				<path style="fill:#FFFFFF;stroke:#303030;stroke-width:1.5;stroke-linecap:round;stroke-linejoin:round;stroke-miterlimit:10;" d="
				M138.68,135.918c0,0-9.017-1.485-14.275-7.357c-7.416,7.185-15.428,16.453-19.158,28.156c-3.73,11.703-5.695,22.956-7.983,31.605
				s-5.902,29.523-5.902,29.523s12.064,18.27,43.778,18.313c29.288,0.039,32.436-8.22,32.436-8.22s1.015-23.07,1.706-31.181
				c0.691-8.112,6.273-23.786,8.444-31.736c2.171-7.95,0.089-12.747,0.089-12.747l-15.742-7.871c0,0-3.562,3.952-9.937,3.028
				C145.763,146.507,141.315,141.375,138.68,135.918z"/>
			<g id="Jacket">
				<path style="fill:#00826F;" d="M134.509,189.236c5.904-23.553,8.832-32.902,9.549-40.472c-2.772-3.29-3.337-7.933-2.32-13.544
					c0,0-10.872-3.016-18.148-9.32c-18.326,11.331-22.264,38.743-24.908,50.857c-2.644,12.114-7.081,24.735-7.386,30.162
					c-0.062,1.099,0.185,2.466,0.777,3.986c-0.664,1.221-2.228,4.376-1.894,6.473c0.171,1.07,2.101,13.775,32.227,19.686
					C126.844,210.786,132.627,196.745,134.509,189.236z"/>
				<path style="fill:#00826F;" d="M178.724,150.712c-7.285-3.223-19.226-9.476-19.226-9.476c1.004,2.47,0.513,5.007-0.28,11.399
					c0.946,13.608-1.552,35.493-9.019,85.897c12.472-1.465,18.98-5.811,19.074-7.49c-0.029-3.304-0.689-7.161-0.689-7.161
					l-0.005-0.001c1.036-1.018,1.698-1.909,2.022-2.51c2.556-4.743,0.544-16.729,0.424-21.527
					c-0.118-4.721,0.807-14.374,5.266-25.009C184.018,156.406,178.724,150.712,178.724,150.712z"/>
				<path style="fill:none;stroke:#303030;stroke-width:1.5;stroke-linecap:round;stroke-linejoin:round;stroke-miterlimit:10;" d="
					M123.568,230.605c-1.684-0.351-26.128-4.736-31.634-20.059"/>
				<path style="fill:none;stroke:#303030;stroke-width:1.5;stroke-linecap:round;stroke-linejoin:round;stroke-miterlimit:10;" d="
					M168.585,223.881c-2.757,2.708-8.221,6.334-17.392,7.918"/>
				<path style="fill:#303030;" d="M144.058,148.764c1.207-2.847,4.231-6.803,2.957-10c-1.273-3.197-2.436-3.796-3.361-7.161
					l0.925-2.835c0,0-1.2-1.012-2.425,0.476c-1.225,1.488-3.301,5.033-3.301,5.033S137.058,143.918,144.058,148.764z"/>
				<path style="fill:#303030;" d="M159.219,152.635l-0.41-11.361l1.32-6.009c0,0,1.053,1.767,1.86,4.833
					c0.441,1.674,0.139,4.74-0.29,6.552C161.107,149.152,159.219,152.635,159.219,152.635z"/>
			</g>
		</g>
		<g id="Arm_00000156559386779692271220000013102361201002824067_">
			<g>
				<path style="fill:#D48983;" d="M102.656,66.177c-1.086,3.291-8.898,21.766-10.398,26.036c-1.77,5.039-1.57,8.56-0.607,12.243
					c0.602,2.303,4.707,18.482,7.735,29.614c2.255,8.291,4.675,15.315,4.971,29.366c5.042-1.981,9.525-7.531,12.974-14.574
					c4.191-8.557,5.537-21.406,5.537-21.406l-3.997-5.119c-2.717-9.059-8.259-23.876-8.259-23.876s4.152-25.439,4.824-27.732
					c0.673-2.293,1.321-3.571,2.777-5.006c1.455-1.435,2.916-2.572,4.383-3.749c1.062-0.852,2.092-1.746,3.085-2.678
					c0.83-0.779,2.082-1.641,2.613-2.651c0.107-0.203,0.192-0.426,0.182-0.655c-0.041-0.956-1.271-1.37-2.058-1.189
					c-1.102,0.254-2.016,0.949-2.941,1.562c-0.606,0.401-2.111,1.272-2.51,0.725c-0.189-0.259-0.282-0.805,0.509-2.119
					c1.446-2.399,3.842-5.706,5.11-7.681c1.036-1.613,2.015-2.703,2.093-4.184c0.049-0.937-1.052-1.663-1.78-1.301
					c-1.025,0.509-1.478,1.205-2.558,2.605c-1.853,2.403-2.187,2.868-4.345,5.522c-0.452,0.556-0.573,0.679-0.831,0.517
					c-0.258-0.163-0.025-0.77,0.244-1.332c0.269-0.562,0.727-1.538,1.57-3.123c0.897-1.687,1.981-3.634,2.507-4.803
					c0.465-1.032,1.015-2.651-0.155-3.22c-1.315-0.64-2.142,0.781-3.082,2.254c-0.94,1.473-4.333,6.984-4.776,7.68
					c-0.443,0.697-0.835,0.388-0.522-0.328c0.313-0.716,1.885-4.321,3.309-7.582c0.77-1.762,0.802-2.938-0.264-3.314
					c-1.401-0.495-2.326,1.09-3.009,2.258c-0.684,1.169-2.842,5.955-3.388,7.114c-0.214,0.454-0.76,0.45-0.604-0.41
					c0.157-0.86,0.595-2.982,0.872-4.49c0.223-1.213,0.15-2.395-0.784-2.676c-0.934-0.281-1.615,0.815-1.865,1.611
					c-0.294,0.932-1.331,4.565-2.223,7.588c-0.495,1.678-1.438,4.54-1.844,6.254C104.198,57.973,103.742,62.886,102.656,66.177z"/>
				<path style="fill:none;stroke:#303030;stroke-width:1.5;stroke-linecap:round;stroke-linejoin:round;stroke-miterlimit:10;" d="
					M116.704,56.717c-2.701-0.184-5.431,1.475-6.512,3.957"/>
			</g>
			<g>
				<path style="fill:#F55571;" d="M123.59,125.899c-1.478-2.189-3.93-4.381-4.296-6.108c-0.366-1.727-5.166-19.906-5.406-21.569
					c-0.241-1.663,0.581-6.711,1.168-9.882c0.587-3.171,1.433-8.309-0.979-8.808l-15.02-4.642c0,0-2.592-1.202-4.878,6.319
					c-2.286,7.522-5.439,11.795-5.129,19.69c0.31,7.895,3.093,17.702,5.693,26.941s9.262,28.862,7.455,41.395
					C117.651,159.673,124.598,142.49,123.59,125.899z"/>
				<path style="fill:#F55571;" d="M101.5,68.552c0,0,2.252,2.788,6.225,4.383c3.973,1.595,7.506,0.247,7.506,0.247l-1.154,6.351
					c-3.828,2.915-12.588,0.393-15.02-4.642L101.5,68.552z"/>
				<path style="fill:none;stroke:#303030;stroke-width:1.5;stroke-linecap:round;stroke-linejoin:round;stroke-miterlimit:10;" d="
					M114.078,79.533c-3.828,2.915-12.588,0.393-15.02-4.642"/>
			</g>
		</g>
	</g>
</g>
<g id="Character_1">
	<g id="Character_00000161593929647432834970000004509158938911712676_">
		<g id="Legs_00000181773419532044079620000012253022143604836542_">
			<g id="Leg_00000045579078700254980120000013199603545512394644_">
				<path style="fill:#FFC4B0;" d="M243.902,224.684c1.985,19.401,9.19,33.484,14.386,53.687
					c3.844,14.948,6.334,34.967,7.971,49.795c1.089,9.862,1.346,21.207,2.935,39.392c1.362,15.585,4.781,39.867,4.781,39.867
					c0.749,16.915,19.855,5.06,19.795-2.769c0,0,1.866-35.027,4.13-78.139c1.602-30.516,3.028-85.167-9.647-101.833H243.902z"/>
				<g>
					<g>
						<path style="fill:#00826F;" d="M329.092,426.872c-0.107-1.015-1.448-3.512-7.911-5.662c-3.932-1.308-6.174-2.335-9.501-4.559
							c-3.855-2.577-11.572-7.714-15.434-12.445c-2.64-3.233-7.802,0.462-7.756,4.087c-0.851-0.454-1.762-0.829-2.705-0.715
							c-0.897,0.108-1.677,0.645-2.417,1.165c-1.374,0.966-1.193,1.084-2.567,2.05c-1.563,1.1-3.514,1.338-4.797,0.44
							c-1.019-0.713-2.03-3.808-2.03-3.808l-0.371-2.424c-0.527,0.078-1.548,0.39-2.067,1.44c-1.139,2.302-0.448,4.521-1.696,9.208
							c-0.868,3.262-0.611,7.548-0.611,7.548c2.151,2.153,6.536,3.352,11.804,3.635c5.268,0.284,11.026,0.499,15.693,2.152
							c6.455,2.287,11.99,2.849,11.99,2.849c4.131,0.39,9.8,0.263,14.659-0.805C328.235,429.962,329.199,427.887,329.092,426.872z"
							/>
					</g>
					<g>
						
							<path style="fill:none;stroke:#303030;stroke-width:1.5;stroke-linecap:round;stroke-linejoin:round;stroke-miterlimit:10;" d="
							M303.393,420.711c3.181-3.21,7.279-4.308,8.809-4.16"/>
						
							<path style="fill:none;stroke:#303030;stroke-width:1.5;stroke-linecap:round;stroke-linejoin:round;stroke-miterlimit:10;" d="
							M298.988,418.01c3.181-3.21,7.279-4.308,8.809-4.16"/>
						
							<path style="fill:none;stroke:#303030;stroke-width:1.5;stroke-linecap:round;stroke-linejoin:round;stroke-miterlimit:10;" d="
							M295.143,415.309c3.181-3.21,7.279-4.308,8.809-4.16"/>
						
							<path style="fill:none;stroke:#303030;stroke-width:1.5;stroke-linecap:round;stroke-linejoin:round;stroke-miterlimit:10;" d="
							M291.316,412.196c3.181-3.21,7.279-4.308,8.809-4.16"/>
					</g>
					
						<path style="fill:#FFFFFF;stroke:#303030;stroke-width:1.5;stroke-linecap:round;stroke-linejoin:round;stroke-miterlimit:10;" d="
						M328.809,435.17c-3.828,2.699-11.91,3.77-19.426,2.475c-6.512-1.122-12.121-3.77-15.732-4.754
						c-4.64-1.265-9.389-0.586-13.595-1.082c-4.206-0.488-8.737-0.958-9.986-2.615c-1.248-1.649-1.262-3.081-0.84-5.996
						c2.149,2.153,6.539,3.352,11.805,3.635c5.265,0.282,11.05,0.438,15.693,2.149c13.518,4.984,18.068,4.493,26.469,2.648
						c4.858-1.067,6.001-3.739,5.894-4.755C329.839,428.018,331.094,433.559,328.809,435.17z"/>
					
						<path style="fill:#FFFFFF;stroke:#303030;stroke-width:1.5;stroke-linecap:round;stroke-linejoin:round;stroke-miterlimit:10;" d="
						M317.858,420.001c-3.904-0.576-12.057,3.608-13.555,11.469c12.636,3.951,26.177,0.683,24.787-4.595
						C328.577,424.927,323.574,420.845,317.858,420.001z"/>
				</g>
			</g>
			<g id="Leg_00000004528555142182597000000012377774203367313796_">
				<path style="fill:#FFC4B0;" d="M239.409,224.304c-9.177,13.759-21.188,75.82-22.771,106.318
					c-2.238,43.114-4.134,77.292-4.134,77.292c-0.875,7.781,15.595,6.87,18.837,3.112c0,0,8.094-27.588,11.608-42.832
					c3.669-15.917,2.797-27.772,5.851-37.212c3.492-10.796,8.122-35.471,13.501-49.937c7.273-19.559,16.013-34.191,20.022-53.517
					L239.409,224.304z"/>
				<g>
					<g>
						<path style="fill:#00826F;" d="M206.509,423.193c-2.346,3.835-4.539,5.271-6.542,9.228c-1.264,2.496-0.792,5.747,1.292,7.703
							c1.301,1.22,3.019,1.891,4.735,2.377c5.044,1.427,10.536,1.812,15.6,0.456c2.051-0.549,3.812-1.63,5.033-3.336
							c1.393-1.947,2.81-3.878,4.214-5.817c0.497-0.686,1.759-1.252,2.02-3.287c0.186-3.511,0.004-4.567,0.24-7.522
							c0.461-5.774,1.952-16.839-0.332-16.905l-1.428,4.935c-0.946,0.386-0.897-0.315-2.405-2.24
							c-1.291-1.647-3.683-3.134-5.74-3.531c-3.593-0.693-7.525-0.354-9.408,0.929c-2.366,1.612-1.761,3.402-3.032,6.83
							C209.446,416.544,208.462,420.001,206.509,423.193z"/>
					</g>
					<g>
						
							<path style="fill:none;stroke:#303030;stroke-width:1.5;stroke-linecap:round;stroke-linejoin:round;stroke-miterlimit:10;" d="
							M208.555,424.265c5.412-0.785,10.204,0.044,14.291,2.557"/>
					</g>
					<g>
						
							<path style="fill:none;stroke:#303030;stroke-width:1.5;stroke-linecap:round;stroke-linejoin:round;stroke-miterlimit:10;" d="
							M210.074,420.234c5.412-0.785,10.204,0.044,14.291,2.557"/>
					</g>
					<g>
						
							<path style="fill:none;stroke:#303030;stroke-width:1.5;stroke-linecap:round;stroke-linejoin:round;stroke-miterlimit:10;" d="
							M211.191,416.365c5.412-0.785,10.204,0.044,14.291,2.557"/>
					</g>
					<g>
						
							<path style="fill:none;stroke:#303030;stroke-width:1.5;stroke-linecap:round;stroke-linejoin:round;stroke-miterlimit:10;" d="
							M212.121,412.701c5.412-0.785,10.204,0.044,14.291,2.557"/>
					</g>
					
						<path style="fill:#FFFFFF;stroke:#303030;stroke-width:1.5;stroke-linecap:round;stroke-linejoin:round;stroke-miterlimit:10;" d="
						M232.462,435.821c-0.039,1.59-1.018,2.386-1.955,3.671c-0.801,1.098-1.838,2.487-2.21,2.985
						c-2.116,2.829-4.995,4.715-8.866,5.295c-7.484,1.122-16.012-0.628-18.953-3.466c-2.026-1.967-1.792-5.266-0.957-9.952l0,0
						c-0.741,5.587,2.961,6.98,6.476,8.15c4.971,1.656,10.529,1.811,15.595,0.456c1.77-0.477,3.689-1.312,4.82-2.751
						c1.242-1.58,2.246-3.381,3.547-5.189c1.263-1.756,2.757-2.568,2.902-4.503C232.703,431.34,232.494,434.517,232.462,435.821z"/>
					
						<path style="fill:#FFFFFF;stroke:#303030;stroke-width:1.5;stroke-linecap:round;stroke-linejoin:round;stroke-miterlimit:10;" d="
						M199.445,437.323c-0.492-2.048,0.227-4.166,1.582-5.779c2.622-3.121,6.975-4.398,12.172-3.654
						c7.65,1.096,13.144,5.391,13.213,12.318c-1.131,1.439-3.05,2.274-4.82,2.751c-5.065,1.355-10.624,1.199-15.594-0.456
						C203.215,441.577,200.209,440.503,199.445,437.323z"/>
				</g>
			</g>
			<g id="Pants_00000152227590240956655250000009531004655190566577_">
				<path style="fill:#303030;" d="M271.056,388.901c0,0,13.482,3.045,24.043-1.693c0-0.007,6.182-78.629,3.277-115.344
					c-1.786-22.58-6.456-40.298-10.123-48.463c-9.23,3.8-39.26,2.579-49.41-0.977c-6.295,11.454-11.538,28.525-14.478,42.633
					c-9.328,44.77-11.351,120.975-11.351,120.975c0,0,10.841,6.72,25.151,3.202c0,0,22.628-92.028,22.628-92.027
					C260.798,297.239,271.056,388.901,271.056,388.901z"/>
				<path style="fill:#F55571;" d="M238.844,223.497l0.634-7.652c0,0,12.221,4.468,24.241,4.468c12.976,0,23.958-4.561,23.958-4.561
					l0.577,7.65c0,0-8.364,5.258-24.542,5.483C247.534,229.111,238.844,223.497,238.844,223.497z"/>
				<path style="fill:#303030;" d="M244.827,226.452c0.029,0.846,0.393,1.538,0.863,1.875c0.627,0.48,1.336,0.637,2.022,0.634
					c0.375-0.001,0.815-0.096,0.894-0.785c0.362-3.154,0.644-6.15,1.371-9.146c0.06-0.249,0.124-0.518,0.08-0.776
					c-0.062-0.359-0.303-0.541-0.522-0.656c-0.811-0.425-1.68-0.55-2.524-0.364c-0.166,0.036-0.335,0.088-0.476,0.235
					c-0.195,0.205-0.305,0.561-0.401,0.904c-0.329,1.168-0.618,2.368-0.836,3.603C245.087,223.447,244.785,224.931,244.827,226.452z
					"/>
				<path style="fill:#303030;" d="M283.968,225.717c-0.029,0.846-0.393,1.538-0.863,1.875c-0.627,0.48-1.336,0.637-2.022,0.634
					c-0.375-0.001-0.815-0.096-0.894-0.785c-0.362-3.154-0.644-6.15-1.371-9.146c-0.06-0.249-0.124-0.518-0.08-0.776
					c0.062-0.359,0.304-0.541,0.522-0.656c0.81-0.425,1.68-0.55,2.524-0.364c0.166,0.036,0.335,0.088,0.476,0.235
					c0.195,0.205,0.305,0.562,0.401,0.904c0.329,1.168,0.618,2.368,0.836,3.603C283.708,222.713,284.01,224.196,283.968,225.717z"/>
				
					<path style="fill:#FFFFFF;stroke:#303030;stroke-width:1.5;stroke-linecap:round;stroke-linejoin:round;stroke-miterlimit:10;" d="
					M270.033,383.557c6.533,3.259,19.035,3.086,25.717-1.041l-0.607,6.728c-4.888,4.27-18.231,4.687-24.502,1.009L270.033,383.557z"
					/>
				
					<path style="fill:#FFFFFF;stroke:#303030;stroke-width:1.5;stroke-linecap:round;stroke-linejoin:round;stroke-miterlimit:10;" d="
					M239.439,385.25c-7.174,2.353-20.077,0.5-26.452-4.491l-0.241,6.754c4.503,4.891,18.243,7.1,25.2,4.296L239.439,385.25z"/>
				<path style="fill:none;stroke:#FFFFFF;stroke-width:1.5;stroke-linecap:round;stroke-linejoin:round;stroke-miterlimit:10;" d="
					M270.573,269.303c-5.037,6.74-7.872,22.639-9.955,31.574"/>
			</g>
		</g>
		<g id="Head_00000169523258286548971270000011038531833531726771_">
			<path style="fill:#303030;" d="M286.711,144.522c-1.344-8.824-5.61-17.239-5.611-17.24c3.136-7.057-6.355-12.519-15.866-12.284
				c-5.949,0.147-11.897,3.492-15.061,6.966l-0.028,0.007c-2.784,0.134-7.172,4.465-6.616,12.387c0.556,7.922-0.226,11.371,0,16.752
				c0.239,5.706-0.586,8.292-0.586,8.292c18.841,4.863,31.187,2.598,37.356,0.528c0.864-2.827,1.72-5.031,1.72-10.788
				c1.368,2.379,2.137,6.397,2.078,9.273C284.096,158.414,288.004,153.015,286.711,144.522z"/>
			<path style="fill:#FFC4B0;" d="M254.533,122.198c0.944,6.237-4.498,13.865-4.498,13.865c0.717,1.589,1.236,3.258,1.545,4.961
				c-1.224-1.813-3.133-3.313-5.365-3.614c-2.232-0.3-4.721,0.864-5.411,2.909c-0.682,2.022,0.572,4.335,2.499,5.41
				c1.927,1.075,4.64,1.29,7.158,0.173l0.003-0.002c0.805,2.099,2.641,4.255,5.353,5.76l-0.972,9.255l-2.688,0.521l18.658,11.673
				l0.794-10.161l-3.082-0.984l-0.416-7.533c3.779-0.173,14.891-2.988,13.837-17.39c-0.212-2.891-1.019-5.579-2.225-7.924l-0.001,0
				C276.741,124.288,272.362,118.847,254.533,122.198z"/>
			<g>
				<path style="fill:none;stroke:#303030;stroke-width:1.5;stroke-linecap:round;stroke-linejoin:round;stroke-miterlimit:10;" d="
					M243.529,140.664c0.543-0.319,1.829-0.493,3.076-0.05c1.247,0.444,2.224,1.527,2.499,2.77"/>
				<path style="fill:none;stroke:#303030;stroke-width:1.5;stroke-linecap:round;stroke-linejoin:round;stroke-miterlimit:10;" d="
					M245.594,142.221c0.4-0.232,1.786-0.793,3.03,0.013"/>
			</g>
			<g>
				<path style="fill:#303030;" d="M260.277,153.26c0,0,2.906,1.388,7.837,1.171l0.116,2.107
					C268.23,156.538,263.456,156.561,260.277,153.26z"/>
				<path style="fill:none;stroke:#303030;stroke-width:1.5;stroke-linecap:round;stroke-linejoin:round;stroke-miterlimit:10;" d="
					M266.335,130.072c0,1.632,0.317,3.63,2.03,6.759c0.199,0.364,0.415,0.73,0.482,1.139c0.099,0.613-0.159,1.242-0.557,1.719
					s-0.924,0.827-1.448,1.16"/>
				<g>
					<g>
						<path style="fill:#FFFFFF;" d="M277.224,135.074c-0.464-1.344-1.808-2.336-3.28-2.42c-1.472-0.084-3.568,0.655-3.908,2.719
							C270.628,137.429,275.303,137.946,277.224,135.074z"/>
						<path style="fill:#303030;" d="M275.377,136.074c-0.481,0.983-1.707,1.378-2.74,0.883c-1.033-0.496-1.48-1.695-0.999-2.679
							c0.481-0.983,1.707-1.378,2.74-0.883C275.41,133.891,275.858,135.091,275.377,136.074z"/>
						<polygon style="fill:#FFFFFF;" points="271.495,134.222 273.508,135.176 271.216,135.329 						"/>
						
							<path style="fill:none;stroke:#303030;stroke-width:1.5;stroke-linecap:round;stroke-linejoin:round;stroke-miterlimit:10;" d="
							M270.036,135.373c0.931-1.729,2.325-2.164,3.632-2.304c1.434-0.153,2.499,0.227,3.608,1.507"/>
					</g>
					
						<path style="fill:none;stroke:#303030;stroke-width:1.5;stroke-linecap:round;stroke-linejoin:round;stroke-miterlimit:10;" d="
						M278.672,133.693c-0.256,0.514-0.819,0.859-1.393,0.853"/>
					
						<path style="fill:none;stroke:#303030;stroke-width:1.5;stroke-linecap:round;stroke-linejoin:round;stroke-miterlimit:10;" d="
						M271.77,128.357c2.006-0.757,4.115-0.572,5.882,0.33"/>
				</g>
				<g>
					<g>
						<path style="fill:#FFFFFF;" d="M256.124,135.303c0.447-1.35,1.778-2.359,3.249-2.463s3.576,0.609,3.943,2.668
							C262.75,137.572,258.082,138.149,256.124,135.303z"/>
						<path style="fill:#303030;" d="M261.358,135.875c-0.296,1.054-1.431,1.664-2.536,1.362c-1.105-0.302-1.761-1.401-1.466-2.455
							c0.295-1.054,1.431-1.664,2.536-1.362C260.997,133.722,261.654,134.821,261.358,135.875z"/>
						<polygon style="fill:#FFFFFF;" points="257.206,134.754 259.358,135.329 257.131,135.893 						"/>
						
							<path style="fill:none;stroke:#303030;stroke-width:1.5;stroke-linecap:round;stroke-linejoin:round;stroke-miterlimit:10;" d="
							M263.315,135.508c-0.954-1.717-2.353-2.134-3.662-2.257c-1.435-0.135-2.496,0.26-3.588,1.553"/>
					</g>
					
						<path style="fill:none;stroke:#303030;stroke-width:1.5;stroke-linecap:round;stroke-linejoin:round;stroke-miterlimit:10;" d="
						M254.657,133.941c0.262,0.51,0.83,0.848,1.404,0.835"/>
					
						<path style="fill:none;stroke:#303030;stroke-width:1.5;stroke-linecap:round;stroke-linejoin:round;stroke-miterlimit:10;" d="
						M261.927,128.211c-2.575-0.385-4.704-0.158-6.352,1.074"/>
				</g>
				<g>
					<path style="fill:#303030;" d="M265.234,144.052c1.164,0.062,2.583,0.289,3.001,1.304c0.58-1.226,1.496-1.586,1.496-1.586
						s-1.11-0.609-2.311-0.479C266.221,143.421,265.234,144.052,265.234,144.052z"/>
					<path style="fill:#FFFFFF;" d="M263.302,144.606c0.372,0.555,1.875,1.879,4.237,1.524c0.514-0.094,0.533-0.416,0.697-0.774
						c-0.087-0.488-0.894-1.406-3.001-1.304C264.684,144.417,263.867,144.582,263.302,144.606z"/>
					
						<path style="fill:none;stroke:#303030;stroke-width:1.5;stroke-linecap:round;stroke-linejoin:round;stroke-miterlimit:10;" d="
						M270.863,143.805c-1.164,0.056-2.279-0.6-3.441-0.514c-0.906,0.067-1.709,0.574-2.549,0.919
						c-0.84,0.344-1.882,0.503-2.596-0.057"/>
					
						<path style="fill:none;stroke:#303030;stroke-width:1.5;stroke-linecap:round;stroke-linejoin:round;stroke-miterlimit:10;" d="
						M269.838,143.802c-0.762,0.413-1.377,0.971-1.701,1.775c-0.052,0.13-0.133,0.446-0.598,0.554
						c-0.854,0.198-3.223-0.013-4.284-1.591"/>
				</g>
			</g>
			<path style="fill:#F55571;" d="M252.031,146.606c0,1.163-0.943,2.107-2.107,2.107s-2.107-0.943-2.107-2.107
				s0.943-2.107,2.107-2.107S252.031,145.443,252.031,146.606z"/>
			<g>
				<path style="fill:none;stroke:#303030;stroke-width:1.5;stroke-linecap:round;stroke-linejoin:round;stroke-miterlimit:10;" d="
					M265.39,135.461c0,2.963-2.402,5.366-5.366,5.366c-2.964,0-5.366-2.402-5.366-5.366c0-2.964,2.402-5.366,5.366-5.366
					C262.988,130.096,265.39,132.498,265.39,135.461z"/>
				<path style="fill:none;stroke:#303030;stroke-width:1.5;stroke-linecap:round;stroke-linejoin:round;stroke-miterlimit:10;" d="
					M280.768,135.461c0,2.963-2.402,5.366-5.366,5.366c-2.963,0-5.366-2.402-5.366-5.366c0-2.964,2.402-5.366,5.366-5.366
					C278.365,130.096,280.768,132.498,280.768,135.461z"/>
				<path style="fill:none;stroke:#303030;stroke-width:1.5;stroke-linecap:round;stroke-linejoin:round;stroke-miterlimit:10;" d="
					M265.39,135.461c1.157-1.342,3.366-1.398,4.646-0.088"/>
				
					<line style="fill:none;stroke:#303030;stroke-width:1.5;stroke-linecap:round;stroke-linejoin:round;stroke-miterlimit:10;" x1="254.659" y1="135.461" x2="248.624" y2="137.492"/>
			</g>
		</g>
		<g id="Chest_00000072981710376492998930000000191108434531914889_">
			<path id="Chest_00000023245316927167740620000011777624045523818648_" style="fill:#00826F;" d="M287.41,166.726l-13.409-4.967
				c-1.639-3.875-3.495-4.368-5.742-4.656l0.268,4.861c1.177,4.12-1.044,8.749-1.044,8.749s-9.805-6.676-12.638-9.798l0.398-3.788
				c0,0-4.063-0.671-5.697,5.007l-11.526,3.887c0,0-4.324,10.876-3.639,24.608c0.429,8.615,0.599,13.729,0.666,19.219
				c0.046,3.767,2.541,7.057,6.159,8.105c4.956,1.436,13.011,3.014,24.478,3.014c9.981,0,16.092-1.357,19.777-2.817
				c3.211-1.273,5.285-4.411,5.303-7.864c0.035-7.084,0.083-17.294-0.044-21.998C290.379,175.734,287.41,166.726,287.41,166.726z"/>
			<path style="fill:none;stroke:#303030;stroke-width:1.5;stroke-linecap:round;stroke-linejoin:round;stroke-miterlimit:10;" d="
				M267.483,175.841c0.753,11.098,0.747,27.799-1.148,43.943"/>
			<path style="fill:none;stroke:#FFFFFF;stroke-width:1.5;stroke-linecap:round;stroke-linejoin:round;stroke-miterlimit:10;" d="
				M259.5,173.963c5.361,3.289,12.429,1.837,15.111-1.307"/>
			<path style="fill:none;stroke:#303030;stroke-width:1.5;stroke-linecap:round;stroke-linejoin:round;stroke-miterlimit:10;" d="
				M264.448,172.055l-3.131-2.493l-4.475,7.323c0,0-7.427-5.866-6.89-13.747"/>
			<path style="fill:none;stroke:#303030;stroke-width:1.5;stroke-linecap:round;stroke-linejoin:round;stroke-miterlimit:10;" d="
				M269.66,172.002l1.694-3.039c0,0,2.717,2.671,5.295,6.446c1.565-5.295-2.21-12.616-2.21-12.616"/>
		</g>
		<g id="Arm_00000044874069532115365990000018251937685181829774_">
			<path style="fill:#FFC4B0;" d="M203.34,234.786c-2.609,3.077-2.805,5.185-6.336,8.824c-1.821,1.877-3.58,6.793-5.108,8.405
				c-1.002,1.057-2.148,0.407-2.74-0.143c-1.371,3.284-2.932,3.964-4.59,2.252c-1.213,1.861-3.191,0.572-2.888-2.525
				c-0.875,1.342-2.305,0.641-2.646,0.234c-0.617-0.736-0.674-2.125-0.42-3.217c0.954-4.099,3.135-7.761,5.38-11.232
				c-0.521-0.165-2.361,2.419-3.029,3.084c-0.708,0.706-1.403,1.392-2.337,1.254c-1.176-0.174-1.708-1.114-1.578-1.749
				c0.115-0.566,0.835-1.455,1.007-1.72c1.199-1.855,1.77-3.062,3.282-4.685c3.58-3.845,7.057-5.914,11.536-8.66
				c1.817-1.114,3.158-2.218,4.47-3.916c1.481-1.918,2.786-3.973,4.134-5.985c3.018-4.507,7.389-9.541,10.34-14.092
				c0,0,8.393-15.093,13.471-23.561c3.556-5.929,7.895-8.1,12.458-9.894l-0.191,24.709c0,0-4.748,6.438-8.587,11.773
				c-4.777,6.636-5.832,8.325-10.225,13.566C214.005,223.16,205.949,231.709,203.34,234.786z"/>
			<path style="fill:none;stroke:#303030;stroke-width:1.5;stroke-linecap:round;stroke-linejoin:round;stroke-miterlimit:10;" d="
				M187.634,240.042c-2.718,3.755-5.792,9.211-5.956,11.556"/>
			<path style="fill:none;stroke:#303030;stroke-width:1.5;stroke-linecap:round;stroke-linejoin:round;stroke-miterlimit:10;" d="
				M190.236,241.971c-4.889,7.68-4.69,10.65-5.67,12.153"/>
			<path style="fill:none;stroke:#303030;stroke-width:1.5;stroke-linecap:round;stroke-linejoin:round;stroke-miterlimit:10;" d="
				M193.465,243.227c-1.581,2.568-3.303,5.949-4.309,8.645"/>
			<path style="fill:#00826F;" d="M238.021,166.021c4.592,6.334,1.693,32.467,1.693,32.467s-5.742,9.634-12.809,15.607
				c-2.907,2.457-11.765,10.236-14.339,12.498c-0.34,0.299-0.864,0.156-1.026-0.267c-1.954-5.108-5.614-8.459-10.932-10.103
				c-0.421-0.13-0.605-0.618-0.35-0.977c1.865-2.632,8.273-11.689,10.776-15.392c3.973-5.878,7.761-14.166,9.644-17.195
				C227.782,171.232,230.208,168.742,238.021,166.021z"/>
			<path style="fill:none;stroke:#303030;stroke-width:1.5;stroke-linecap:round;stroke-linejoin:round;stroke-miterlimit:10;" d="
				M187.989,235.137c-1.793,1.911-2.888,1.023-4.961,2.926"/>
			<path style="fill:none;stroke:#303030;stroke-width:1.5;stroke-linecap:round;stroke-linejoin:round;stroke-miterlimit:10;" d="
				M236.347,181.237c-1.689,6.826-1.989,12.806-1.453,23.686"/>
		</g>
		<g id="Arm_00000085951607158127837730000001878448696929585301_">
			<path style="fill:#FFC4B0;" d="M322.461,234.786c2.609,3.077,2.806,5.185,6.336,8.824c1.822,1.877,3.58,6.793,5.108,8.405
				c1.002,1.057,2.148,0.407,2.74-0.143c1.371,3.284,2.932,3.964,4.59,2.252c1.213,1.861,3.19,0.572,2.888-2.525
				c0.875,1.342,2.305,0.641,2.646,0.234c0.617-0.736,0.674-2.125,0.42-3.217c-0.954-4.099-3.135-7.761-5.38-11.232
				c0.261-0.082,0.851,0.522,1.459,1.231c0.609,0.709,1.236,1.521,1.569,1.854c0.708,0.706,1.403,1.392,2.337,1.254
				c1.177-0.174,1.708-1.114,1.578-1.749c-0.116-0.566-0.835-1.455-1.007-1.72c-1.199-1.855-1.77-3.062-3.282-4.685
				c-3.58-3.845-7.057-5.914-11.536-8.66c-1.817-1.114-3.158-2.218-4.47-3.916c-1.481-1.918-2.786-3.973-4.134-5.985
				c-3.018-4.507-7.389-9.541-10.34-14.092c0,0-8.393-15.093-13.471-23.561c-3.556-5.929-8.542-8.835-13.104-10.629l0.837,25.444
				c0,0,4.748,6.438,8.587,11.773c4.777,6.636,5.832,8.325,10.225,13.566C311.796,223.16,319.852,231.709,322.461,234.786z"/>
			<path style="fill:none;stroke:#303030;stroke-width:1.5;stroke-linecap:round;stroke-linejoin:round;stroke-miterlimit:10;" d="
				M338.167,240.042c2.718,3.755,5.792,9.211,5.956,11.556"/>
			<path style="fill:none;stroke:#303030;stroke-width:1.5;stroke-linecap:round;stroke-linejoin:round;stroke-miterlimit:10;" d="
				M335.565,241.971c4.889,7.68,4.69,10.65,5.67,12.153"/>
			<path style="fill:none;stroke:#303030;stroke-width:1.5;stroke-linecap:round;stroke-linejoin:round;stroke-miterlimit:10;" d="
				M332.336,243.227c1.581,2.568,3.303,5.949,4.309,8.645"/>
			<path style="fill:#00826F;" d="M287.41,166.726c-4.592,6.334-1.322,31.762-1.322,31.762s5.742,9.634,12.809,15.607
				c2.907,2.457,11.765,10.236,14.339,12.498c0.34,0.299,0.864,0.156,1.026-0.267c1.954-5.108,5.614-8.459,10.932-10.103
				c0.421-0.13,0.605-0.618,0.35-0.977c-1.865-2.632-8.273-11.689-10.776-15.392c-3.973-5.878-7.761-14.166-9.644-17.195
				C298.019,171.232,295.955,169.271,287.41,166.726z"/>
			<path style="fill:none;stroke:#303030;stroke-width:1.5;stroke-linecap:round;stroke-linejoin:round;stroke-miterlimit:10;" d="
				M337.812,235.137c1.793,1.911,2.888,1.023,4.961,2.926"/>
			<path style="fill:none;stroke:#303030;stroke-width:1.5;stroke-linecap:round;stroke-linejoin:round;stroke-miterlimit:10;" d="
				M289.454,181.237c1.689,6.826,1.989,12.806,1.453,23.686"/>
		</g>
	</g>
</g>
<g id="Banner_00000014606049370291472500000018300727470805209531_">
	<g id="Banner">
		<g>
			
				<path style="fill:#FFFFFF;stroke:#303030;stroke-width:1.5;stroke-linecap:round;stroke-linejoin:round;stroke-miterlimit:10;" d="
				M409.294,319.952c-95.897,1.514-191.155,1.514-287.051,0c-1.513-0.024-2.794-1.056-2.998-2.428
				c-3.755-25.218-3.753-49.498,0-74.716c0.204-1.372,1.484-2.404,2.998-2.428c95.896-1.514,191.154-1.514,287.051,0
				c1.514,0.024,2.794,1.056,2.998,2.428c3.754,25.218,3.753,49.498,0,74.716C412.088,318.896,410.808,319.928,409.294,319.952z"/>
			<g>
				<g>
					<path style="fill:#00826F;" d="M184.091,266.94l-4.519,15.773l-5.55-18.298l-6.29,0.059l-5.183,18.325l-4.792-15.611
						c-0.476-1.55-1.914-2.602-3.535-2.587l-0.05,0c-2.477,0.023-4.216,2.448-3.445,4.801l7.657,23.364
						c0.581,1.773,2.243,2.966,4.109,2.948l0.034,0c1.903-0.018,3.566-1.289,4.082-3.121l4.371-15.524l4.693,15.445
						c0.552,1.818,2.237,3.055,4.138,3.037l0,0c1.864-0.018,3.502-1.239,4.051-3.02l7.249-23.504
						c0.731-2.369-1.054-4.763-3.533-4.74l0,0C185.955,264.302,184.537,265.381,184.091,266.94z"/>
					<path style="fill:#00826F;" d="M219.988,268.2l0.005-0.177c0.051-1.785-1.354-3.273-3.138-3.325l-13.39-0.387v0l-3.013-0.087
						c-1.785-0.052-3.273,1.354-3.325,3.138l-0.713,24.714c-0.051,1.785,1.354,3.274,3.139,3.325l4.491,0.129l12.175,0.352
						c1.785,0.052,3.273-1.353,3.325-3.138l0.005-0.177c0.052-1.785-1.353-3.274-3.138-3.325l-12.027-0.348l0.174-6.024
						l10.445,0.301c1.785,0.052,3.273-1.354,3.325-3.138l0,0c0.051-1.785-1.354-3.273-3.138-3.325l-10.445-0.302l0.156-5.409
						l11.763,0.339C218.448,271.39,219.937,269.985,219.988,268.2z"/>
					<path style="fill:#00826F;" d="M243.073,288.949l-10.03-0.111l0.269-24.414l-7.874-0.087l-0.344,31.188l7.874,0.086l0,0
						l10.029,0.111c1.871,0.021,3.404-1.479,3.424-3.35l0,0C246.443,290.503,244.944,288.97,243.073,288.949z"/>
					<path style="fill:#00826F;" d="M269.925,288.756c-1.137,0.398-2.436,0.559-3.901,0.484c-1.26-0.064-2.399-0.335-3.416-0.813
						c-1.019-0.478-1.888-1.138-2.608-1.983c-0.721-0.844-1.266-1.833-1.633-2.968c-0.368-1.135-0.517-2.39-0.447-3.767
						c0.07-1.377,0.346-2.611,0.827-3.702c0.481-1.091,1.123-2.02,1.926-2.787c0.802-0.766,1.734-1.328,2.795-1.686
						c1.06-0.357,2.22-0.503,3.48-0.439c1.465,0.075,2.727,0.374,3.786,0.898c0.212,0.105,0.416,0.216,0.614,0.334
						c1.377,0.825,3.109,0.747,4.3-0.329l0.115-0.104c1.784-1.611,1.483-4.52-0.618-5.689c-0.409-0.227-0.83-0.44-1.264-0.638
						c-1.923-0.876-4.115-1.377-6.575-1.502c-2.343-0.119-4.54,0.18-6.587,0.898c-2.048,0.718-3.863,1.757-5.444,3.114
						c-1.582,1.359-2.84,2.991-3.773,4.896c-0.934,1.906-1.46,4.015-1.578,6.328c-0.116,2.284,0.193,4.43,0.928,6.434
						c0.735,2.006,1.818,3.771,3.254,5.297c1.434,1.527,3.141,2.745,5.121,3.653c1.98,0.908,4.157,1.423,6.529,1.543
						c2.577,0.132,4.844-0.135,6.802-0.798c0.44-0.149,0.871-0.315,1.293-0.496c2.207-0.95,2.802-3.812,1.191-5.595l-0.116-0.128
						c-1.06-1.174-2.753-1.461-4.184-0.789C270.479,288.546,270.207,288.657,269.925,288.756z"/>
					<path style="fill:#00826F;" d="M313.659,273.657c-0.834-1.965-1.997-3.682-3.492-5.151c-1.494-1.468-3.252-2.606-5.274-3.416
						c-2.023-0.808-4.237-1.215-6.642-1.218c-2.405-0.003-4.62,0.398-6.644,1.202c-2.024,0.805-3.786,1.939-5.283,3.403
						c-1.497,1.465-2.665,3.172-3.504,5.121c-0.838,1.95-1.259,4.067-1.261,6.355c-0.003,2.288,0.42,4.422,1.268,6.402
						c0.848,1.981,2.026,3.705,3.535,5.173c1.508,1.469,3.274,2.615,5.297,3.438c2.023,0.823,4.236,1.237,6.641,1.24
						c2.376,0.003,4.568-0.398,6.578-1.202c2.01-0.804,3.763-1.945,5.262-3.425c1.497-1.478,2.665-3.2,3.504-5.165
						c0.838-1.963,1.259-4.089,1.261-6.377C314.908,277.75,314.492,275.623,313.659,273.657z M305.793,284.821
						c-0.706,1.378-1.704,2.447-2.995,3.208c-1.292,0.761-2.817,1.14-4.577,1.138c-1.319-0.002-2.507-0.215-3.562-0.643
						c-1.055-0.426-1.965-1.043-2.725-1.851c-0.762-0.807-1.34-1.776-1.735-2.905c-0.395-1.129-0.591-2.398-0.589-3.805
						c0.002-1.819,0.355-3.417,1.061-4.794c0.705-1.378,1.703-2.439,2.995-3.186c1.291-0.746,2.817-1.119,4.576-1.116
						c1.32,0.002,2.507,0.223,3.563,0.664c1.055,0.441,1.963,1.066,2.725,1.873c0.761,0.808,1.34,1.769,1.734,2.884
						c0.395,1.115,0.591,2.348,0.59,3.696C306.853,281.831,306.499,283.444,305.793,284.821z"/>
					<path style="fill:#00826F;" d="M352.126,291.432l-0.514-27.292l-5.674,0.107l-10.279,16.246l-10.921-15.846l-5.674,0.107
						l0.515,27.292c0.041,2.15,1.816,3.86,3.966,3.819l0.044-0.001c2.15-0.041,3.859-1.816,3.819-3.966l-0.227-12.058l6.062,8.802
						l5.102-0.096l5.77-9.038l0.227,12.071c0.04,2.15,1.816,3.86,3.966,3.819l0,0C350.456,295.357,352.166,293.582,352.126,291.432z
						"/>
					<path style="fill:#00826F;" d="M377.816,289.075l-12.032-0.113l0.057-6.026l10.448,0.098c1.786,0.017,3.247-1.417,3.263-3.203
						l0,0c0.017-1.786-1.417-3.247-3.203-3.264l-10.448-0.098l0.051-5.411l11.767,0.11c1.786,0.017,3.247-1.417,3.264-3.203
						l0.002-0.176c0.017-1.786-1.417-3.247-3.203-3.264l-13.395-0.126v0l-3.014-0.028c-1.786-0.017-3.247,1.417-3.264,3.203
						l-0.232,24.722c-0.017,1.786,1.417,3.247,3.203,3.264l4.641,0.044v0l12.032,0.113c1.786,0.017,3.247-1.417,3.264-3.203
						l0.002-0.175C381.035,290.553,379.601,289.091,377.816,289.075z"/>
				</g>
				<path style="fill:#F55571;" d="M144.587,286.09l-10.874,5.862c-1.701,0.918-2.337,3.04-1.42,4.742
					c0.633,1.173,1.839,1.84,3.084,1.84c0.561,0,1.13-0.136,1.658-0.42l10.874-5.862c1.701-0.918,2.337-3.04,1.42-4.742
					C148.412,285.81,146.289,285.176,144.587,286.09z M143.333,279.649c1.822,0,3.359-1.411,3.487-3.257
					c0.135-1.929-1.319-3.601-3.248-3.734l-12.324-0.858c-1.927-0.138-3.601,1.319-3.734,3.248
					c-0.135,1.929,1.319,3.601,3.248,3.734l12.324,0.858C143.169,279.646,143.251,279.649,143.333,279.649z M403.744,291.953
					l-10.874-5.862c-1.702-0.915-3.825-0.281-4.742,1.42c-0.917,1.702-0.281,3.824,1.42,4.742l10.874,5.862
					c0.528,0.284,1.098,0.42,1.658,0.42c1.245,0,2.451-0.667,3.084-1.84C406.081,294.993,405.446,292.871,403.744,291.953z
					 M390.481,280.079c0.082,0,0.164-0.003,0.247-0.009l12.323-0.858c1.929-0.134,3.383-1.806,3.248-3.734
					c-0.134-1.929-1.804-3.383-3.734-3.248l-12.323,0.858c-1.929,0.134-3.383,1.806-3.248,3.734
					C387.121,278.668,388.659,280.079,390.481,280.079z"/>
			</g>
		</g>
		<path style="fill:#FFC4B0;" d="M348.753,239.974c-0.116-0.566-0.835-1.455-1.007-1.72l-4.478,0.361
			c0.609,0.709,1.236,1.521,1.569,1.854c0.708,0.706,1.403,1.392,2.337,1.254C348.351,241.548,348.883,240.609,348.753,239.974z"/>
		<path style="fill:#FFC4B0;" d="M177.048,239.974c0.116-0.566,0.835-1.455,1.007-1.72l4.478,0.361
			c-0.609,0.709-1.236,1.521-1.569,1.854c-0.708,0.706-1.403,1.392-2.337,1.254C177.45,241.548,176.919,240.609,177.048,239.974z"/>
	</g>
</g>
</svg>
